<svg width="179.714600" height="32.916512" viewBox="0 0 179.715 32.9165" fill="none" xmlns="http://www.w3.org/2000/svg" xmlns:xlink="http://www.w3.org/1999/xlink">
	<desc>
			Created with Pixso.
	</desc>
	<defs/>
	<path id="Layer 7" d="M13.22 0.05C8.99 0.35 5.48 2.15 3.13 5.24C1.59 7.27 0.6 9.71 0.29 12.25L0.19 13.06L0.72 13.13C2.91 13.45 5.14 13.54 6.81 13.38L7.68 13.3L7.76 12.71C7.98 11.11 8.9 9.14 9.92 8.11C11.82 6.17 15.1 5.67 17.7 6.92C20.15 8.11 21.79 11.35 21.59 14.63C21.4 17.64 19.88 20.21 17.66 21.27C15.6 22.24 12.86 22.13 11.04 20.99C10.42 20.6 9.37 19.56 9.04 19.01C8.91 18.8 8.78 18.63 8.73 18.63C8.69 18.63 8.23 19.05 7.71 19.56C6.66 20.59 5.64 21.89 4.75 23.31L4.17 24.24L4.79 24.79C7.44 27.12 10.51 28.18 14.6 28.18C18.84 28.18 21.97 27.06 24.67 24.55C26.63 22.74 27.88 20.57 28.63 17.66C28.93 16.53 28.97 16.11 28.98 14.18C28.98 11.88 28.89 11.22 28.31 9.4C26.67 4.23 21.89 0.48 16.51 0.11C15.92 0.07 15.24 0.02 14.99 0C14.74 -0.02 13.94 0.01 13.22 0.05Z" fill="#1A222A" fill-opacity="1.000000" fill-rule="evenodd"/>
	<path id="Vector" d="M14.23 11.49C12.19 11.92 10.04 13.07 9.85 13.82C9.77 14.14 9.52 14.22 7.65 14.53C6.13 14.78 1.9 14.66 0.31 14.32L0 14.25L0.09 15.37C0.29 17.9 1.46 21.03 2.84 22.74L3.11 23.08L3.87 21.93C5.67 19.19 7.89 17.04 10.01 15.97C10.53 15.71 10.56 15.71 10.76 15.93C11.07 16.26 11.02 16.48 10.51 17.22C10.07 17.86 10.06 17.88 10.35 17.88C11.25 17.88 12.65 17.12 12.94 16.47C13.08 16.17 13.22 16.06 13.57 16C14.36 15.87 15.82 15.42 16.46 15.1C17.18 14.74 18.45 13.6 18.98 12.85C19.33 12.34 19.34 12.32 19.1 12.14C18.19 11.46 15.85 11.14 14.23 11.49ZM9.34 11.78C9 11.85 8.37 12.33 8.62 12.33C8.72 12.33 9.07 12.46 9.38 12.61C9.84 12.83 10.01 12.86 10.17 12.74C10.29 12.66 10.65 12.45 10.97 12.28L11.56 11.97L11.19 11.83C10.84 11.69 9.88 11.67 9.34 11.78Z" fill="#3D5EB4" fill-opacity="1.000000" fill-rule="evenodd"/>
	<path id="NYX" d="M50.58 0.59L57.21 0.59L57.21 28.06L51.58 28.06L40.64 12.21L40.47 12.21L40.47 28.06L33.83 28.06L33.83 0.59L39.55 0.59L50.35 16.41L50.58 16.41L50.58 0.59ZM71.56 18.88L61.51 0.59L68.92 0.59L74.73 12.09L74.97 12.09L80.78 0.59L88.2 0.59L78.15 18.88L78.15 28.06L71.56 28.06L71.56 18.88ZM91.73 0.59L99.21 0.59L104.23 9.27L104.44 9.27L109.51 0.59L116.94 0.59L108.65 14.33L117.21 28.06L109.59 28.06L104.44 19.29L104.23 19.29L99.08 28.06L91.51 28.06L100.03 14.33L91.73 0.59Z" fill="#1A222A" fill-opacity="1.000000" fill-rule="evenodd"/>
	<path id="CRM" d="M129.27 10.15C133.54 10.15 136.7 12.57 137.13 16.8L132.81 16.8C132.6 15.03 131.33 13.9 129.38 13.9C126.8 13.9 125.24 15.86 125.25 19.24C125.25 22.76 126.84 24.57 129.36 24.57C131.24 24.57 132.51 23.56 132.82 21.87L137.13 21.89C136.82 25.03 134.13 28.33 129.28 28.33C124.47 28.33 120.88 25.06 120.88 19.24C120.88 13.39 124.55 10.15 129.27 10.15ZM144.82 28.08L140.55 28.08L140.53 10.39L147.85 10.39C151.82 10.39 154.3 12.65 154.31 16.28C154.31 18.73 153.18 20.46 151.24 21.34L154.91 28.08L150.25 28.08L147.02 22.03L144.82 22.03L144.82 28.08ZM157.62 28.08L157.61 10.39L162.91 10.39L167.41 21.34L167.62 21.34L172.11 10.39L177.4 10.39L177.41 28.08L173.25 28.08L173.24 17.21L173.1 17.21L168.85 27.97L166.19 27.97L161.93 17.16L161.79 17.16L161.79 28.08L157.62 28.08ZM144.81 13.84L144.82 18.66L146.92 18.66C148.84 18.66 149.87 17.92 149.87 16.28C149.87 14.64 148.84 13.84 146.92 13.84L144.81 13.84Z" fill="#3D5EB4" fill-opacity="1.000000" fill-rule="evenodd"/>
</svg>
